<?xml version="1.0" standalone="no"?>
<!DOCTYPE svg PUBLIC "-//W3C//DTD SVG 20010904//EN"
 "http://www.w3.org/TR/2001/REC-SVG-20010904/DTD/svg10.dtd">
<svg version="1.0" xmlns="http://www.w3.org/2000/svg"
 width="442.000000pt" height="83.000000pt" viewBox="0 0 442.000000 83.000000"
 preserveAspectRatio="xMidYMid meet">

<g transform="translate(0.000000,83.000000) scale(0.100000,-0.100000)"
fill="#000000" stroke="none">
<path d="M215 701 c-94 -43 -105 -80 -105 -336 l0 -205 40 0 40 0 0 200 c0
216 5 242 51 266 37 19 99 18 128 -2 40 -29 51 -73 51 -209 l0 -125 41 0 41 0
-4 143 c-3 129 -5 147 -28 192 -45 87 -158 121 -255 76z"/>
<path d="M742 699 c-88 -44 -102 -89 -102 -340 l0 -199 40 0 40 0 0 195 c0
209 5 237 52 269 26 19 87 21 122 5 49 -22 56 -59 56 -273 l0 -196 40 0 40 0
0 204 c0 203 0 204 -28 257 -48 93 -161 127 -260 78z"/>
<path d="M2022 699 c-88 -44 -102 -89 -102 -340 l0 -199 39 0 40 0 3 211 3
211 33 29 c35 32 90 39 136 18 49 -22 56 -59 56 -273 l0 -196 40 0 40 0 0 203
c0 202 0 204 -27 257 -22 42 -38 60 -72 77 -57 30 -131 31 -189 2z"/>
<path d="M2984 701 c-44 -20 -74 -56 -92 -110 -8 -21 -12 -109 -12 -232 l0
-199 40 0 40 0 0 196 c0 214 7 251 56 273 36 16 96 14 123 -5 44 -31 51 -69
51 -274 l0 -190 41 0 40 0 -3 213 c-3 210 -3 212 -30 259 -49 82 -159 112
-254 69z"/>
<path d="M3512 699 c-29 -15 -51 -36 -70 -68 -27 -46 -27 -48 -30 -258 l-3
-213 40 0 41 0 0 190 c0 205 7 243 51 274 29 20 91 21 128 2 43 -23 51 -54 51
-201 l0 -135 40 0 40 0 0 138 c-1 186 -19 234 -105 273 -54 25 -130 24 -183
-2z"/>
<path d="M1180 435 l0 -275 40 0 40 0 0 275 0 275 -40 0 -40 0 0 -275z"/>
<path d="M1410 435 l0 -275 40 0 40 0 0 80 0 80 63 0 62 0 49 -80 c47 -78 50
-80 87 -80 22 0 39 3 39 6 0 3 -23 44 -50 90 l-50 85 34 32 c56 53 72 156 37
232 -37 82 -89 104 -243 105 l-108 0 0 -275z m237 175 c44 -26 62 -85 42 -136
-19 -51 -67 -75 -139 -72 l-55 3 -3 99 c-1 55 0 106 2 113 9 21 115 17 153 -7z"/>
<path d="M2450 527 c0 -212 10 -264 63 -315 42 -41 81 -52 179 -52 l78 0 0 40
0 40 -77 0 c-97 0 -137 20 -152 77 -6 21 -11 118 -11 216 l0 177 -40 0 -40 0
0 -183z"/>
<path d="M3950 435 l0 -275 108 0 c92 0 114 3 152 23 76 38 110 115 110 252 0
137 -34 214 -110 253 -38 19 -60 22 -152 22 l-108 0 0 -275z m219 184 c52 -18
66 -57 66 -184 0 -163 -25 -195 -151 -195 l-54 0 0 195 0 195 54 0 c29 0 67
-5 85 -11z"/>
<path d="M814 472 c-32 -21 -18 -72 21 -72 33 0 49 30 29 58 -16 23 -31 27
-50 14z"/>
<path d="M2094 472 c-32 -21 -18 -72 21 -72 26 0 45 26 37 50 -6 17 -22 30
-37 30 -5 0 -15 -4 -21 -8z"/>
<path d="M3046 464 c-19 -19 -20 -25 -3 -48 19 -26 61 -18 65 12 7 44 -32 67
-62 36z"/>
<path d="M430 225 c-15 -18 -10 -45 13 -59 34 -22 73 27 47 59 -16 19 -44 19
-60 0z"/>
<path d="M3730 225 c-10 -12 -10 -21 -2 -40 19 -41 72 -30 72 15 0 39 -45 55
-70 25z"/>
</g>
</svg>
